#!OML:ASF H:\Dans Jumps\Project 1\Capture day 1\Session 1\subject.ASF
:FULLY-SPECIFIED
:DEGREES
600
root 0.0939081 17.8508 -5.14739 14.8987 -1.9214 -1.64741
lowerback 1.2647 0.125942 -0.866497
upperback 5.1665 0.131349 1.25576
thorax 4.61372 -0.00197994 1.78612
lowerneck -13.2844 0.633336 -0.539635
upperneck 26.9564 1.1653 -0.50855
head 10.8745 0.408676 0.0609617
rclavicle 9.69075e-016 -8.24956e-015
rhumerus -35.3052 -2.73751 -82.8277
rradius 40.1907
rwrist 19.3815
rhand -23.4294 -28.243
rfingers 7.12502
rthumb 3.02841 -58.2012
lclavicle 9.69075e-016 -8.24956e-015
lhumerus -35.3426 -8.07621 89.8536
lradius 41.7242
lwrist 26.1418
lhand -28.597 -7.14516
lfingers 7.12502
lthumb -1.9625 22.8256
rfemur -21.0584 -4.55626 21.4
rtibia 20.5126
rfoot -12.872 -1.64635
rtoes 19.7403
lfemur -18.6268 7.45011 -18.7587
ltibia 17.2414
lfoot -10.7291 4.45906
ltoes 9.35775
601
root 0.0932484 17.8502 -5.14669 14.8597 -1.92514 -1.6455
lowerback 1.24249 0.12461 -0.850958
upperback 5.15805 0.129799 1.2467
thorax 4.61752 -0.00185506 1.76803
lowerneck -13.3139 0.641733 -0.528566
upperneck 26.9967 1.17787 -0.518218
head 10.8956 0.413974 0.0574109
rclavicle 1.11816e-015 -7.10655e-015
rhumerus -35.2987 -2.76284 -82.8158
rradius 40.1944
rwrist 19.3774
rhand -23.3989 -28.2452
rfingers 7.12502
rthumb 3.05787 -58.203
lclavicle 1.11816e-015 -7.10655e-015
lhumerus -35.3388 -8.06656 89.8565
lradius 41.6752
lwrist 26.1296
lhand -28.5844 -7.21357
lfingers 7.12502
lthumb -1.95036 22.7573
rfemur -21.0133 -4.55756 21.3972
rtibia 20.517
rfoot -12.8841 -1.64726
rtoes 19.7234
lfemur -18.5781 7.45975 -18.7547
ltibia 17.2411
lfoot -10.7396 4.45608
ltoes 9.34199
602
root 0.0927252 17.8497 -5.14612 14.8256 -1.92775 -1.64508
lowerback 1.21561 0.122151 -0.834611
upperback 5.15067 0.126651 1.23988
thorax 4.62516 -0.00258107 1.75178
lowerneck -13.337 0.649974 -0.528364
upperneck 27.0288 1.19148 -0.523117
head 10.9123 0.419283 0.057541
rclavicle 9.93923e-016 -7.7526e-015
rhumerus -35.2912 -2.78734 -82.7998
rradius 40.2013
rwrist 19.3765
rhand -23.3761 -28.2527
rfingers 7.12502
rthumb 3.07985 -58.2102
lclavicle 9.93923e-016 -7.7526e-015
lhumerus -35.3294 -8.05867 89.8638
lradius 41.6205
lwrist 26.12
lhand -28.588 -7.23196
lfingers 7.12502
lthumb -1.95381 22.7388
rfemur -20.9736 -4.56393 21.3964
rtibia 20.5196
rfoot -12.8931 -1.64176
rtoes 19.71
lfemur -18.5365 7.46354 -18.7497
ltibia 17.2433
lfoot -10.7494 4.45867
ltoes 9.32226
603
root 0.0922915 17.8493 -5.14564 14.7975 -1.92894 -1.64499
lowerback 1.18171 0.119156 -0.817964
upperback 5.14465 0.122757 1.23389
thorax 4.63823 -0.00373381 1.73624
lowerneck -13.3566 0.656904 -0.537363
upperneck 27.0541 1.20418 -0.523436
head 10.9256 0.423857 0.0607612
rclavicle 4.22417e-015 1.635e-014
rhumerus -35.2822 -2.81095 -82.7817
rradius 40.2127
rwrist 19.3731
rhand -23.3458 -28.272
rfingers 7.12502
rthumb 3.10911 -58.2291
lclavicle 4.22417e-015 1.635e-014
lhumerus -35.3128 -8.05467 89.8731
lradius 41.5602
lwrist 26.1113
lhand -28.6034 -7.20491
lfingers 7.12502
lthumb -1.9687 22.7657
rfemur -20.9405 -4.5743 21.3964
rtibia 20.5206
rfoot -12.8994 -1.63175
rtoes 19.7011
lfemur -18.5032 7.46053 -18.7448
ltibia 17.2477
lfoot -10.7579 4.46629
ltoes 9.30984
604
root 0.0919269 17.849 -5.14514 14.774 -1.92783 -1.64342
lowerback 1.14187 0.115995 -0.801974
upperback 5.13887 0.118665 1.22768
thorax 4.65494 -0.00503189 1.72086
lowerneck -13.3724 0.66381 -0.547612
upperneck 27.0776 1.21763 -0.525463
head 10.9376 0.428457 0.0636623
rclavicle 1.41634e-015 -4.12478e-015
rhumerus -35.2722 -2.83802 -82.7622
rradius 40.2195
rwrist 19.3681
rhand -23.3201 -28.2877
rfingers 7.12502
rthumb 3.13401 -58.2445
lclavicle 1.41634e-015 -4.12478e-015
lhumerus -35.2939 -8.05007 89.8825
lradius 41.4974
lwrist 26.0969
lhand -28.6179 -7.13581
lfingers 7.12502
lthumb -1.98271 22.8347
rfemur -20.9114 -4.58594 21.395
rtibia 20.5197
rfoot -12.903 -1.62151
rtoes 19.7019
lfemur -18.4758 7.45108 -18.7415
ltibia 17.2529
lfoot -10.764 4.47799
ltoes 9.31114
605
root 0.0915668 17.8488 -5.14466 14.755 -1.92615 -1.6443
lowerback 1.09845 0.113756 -0.784132
upperback 5.13178 0.115748 1.22225
thorax 4.67227 -0.00568023 1.70528
lowerneck -13.3776 0.670396 -0.562924
upperneck 27.0937 1.23097 -0.524721
head 10.9446 0.432914 0.0683628
rclavicle 1.2275e-014 -8.99501e-015
rhumerus -35.2616 -2.86889 -82.7411
rradius 40.2184
rwrist 19.3622
rhand -23.3012 -28.3001
rfingers 7.12502
rthumb 3.15219 -58.2565
lclavicle 1.2275e-014 -8.99501e-015
lhumerus -35.2772 -8.04096 89.8913
lradius 41.4392
lwrist 26.0732
lhand -28.6319 -6.98928
lfingers 7.12502
lthumb -1.99623 22.9811
rfemur -20.8869 -4.59596 21.3965
rtibia 20.5173
rfoot -12.9047 -1.61132
rtoes 19.71
lfemur -18.4536 7.43793 -18.7356
ltibia 17.2583
lfoot -10.7661 4.49339
ltoes 9.31883
606
root 0.0910498 17.8486 -5.14394 14.7341 -1.92066 -1.64503
lowerback 1.05819 0.113074 -0.765807
upperback 5.12232 0.114952 1.21542
thorax 4.68525 -0.00516971 1.68802
lowerneck -13.3771 0.675768 -0.572324
upperneck 27.113 1.24139 -0.525027
head 10.9517 0.436533 0.071272
rclavicle -8.07563e-015 1.98785e-015
rhumerus -35.2587 -2.90478 -82.7223
rradius 40.2086
rwrist 19.3489
rhand -23.2882 -28.3038
rfingers 7.12502
rthumb 3.1648 -58.2601
lclavicle -8.07563e-015 1.98785e-015
lhumerus -35.2666 -8.03624 89.8993
lradius 41.3676
lwrist 26.0422
lhand -28.6342 -6.94207
lfingers 7.12502
lthumb -1.9984 23.0283
rfemur -20.8577 -4.60198 21.398
rtibia 20.5135
rfoot -12.9081 -1.6091
rtoes 19.7198
lfemur -18.4292 7.42393 -18.7285
ltibia 17.2632
lfoot -10.7674 4.50722
ltoes 9.33448
